<svg width="315" height="315" viewBox="0 0 315 315" fill="none" xmlns="http://www.w3.org/2000/svg">
<circle cx="158" cy="157" r="157" fill="#121729"/>
<circle cx="158.5" cy="157.5" r="118.5" fill="#7E85E1"/>
<circle cx="158" cy="157" r="108" fill="#121729"/>
<ellipse cx="58" cy="157.5" rx="50" ry="57.5" fill="#121729"/>
<ellipse cx="255" cy="157.5" rx="47" ry="57.5" fill="#121729"/>
<path d="M76.2137 162.315L64.583 162.144L64.7749 112.894L53.1029 112.766L52.9931 162.016L41.3621 161.931L41.5131 112.638L29.8411 112.509L29.7124 167.942C29.7003 172.838 31.5227 177.553 34.7795 181.051C38.0362 184.549 42.4609 186.544 47.0817 186.598L52.9177 186.662L64.5075 186.79L70.3435 186.855C74.9642 186.902 79.4008 185.005 82.6788 181.579C85.9567 178.154 87.808 173.479 87.8258 168.584L88.0367 113.151L76.3647 113.022L76.2137 162.315Z" fill="#7E85E1"/>
<path d="M256.245 112.731C252.096 112.715 248.091 114.346 245.111 117.267C242.131 120.188 240.419 124.159 240.351 128.308L240.269 133.548L239.453 185.73L255.102 185.8L255.435 202.038L265.682 201.795L266.527 123.221C266.654 115.102 264.365 112.767 261.486 112.754L256.245 112.731Z" fill="#7E85E1"/>
<rect x="54" y="186" width="10" height="17" fill="#7E85E1"/>
</svg>
